ISO-10303-21;
HEADER;
/* Generated by software containing ST-Developer
 * from STEP Tools, Inc. (www.steptools.com) 
 */

FILE_DESCRIPTION(
/* description */ (''),
/* implementation_level */ '2;1');

FILE_NAME(
/* name */ 'Blare Top.step',
/* time_stamp */ '2026-09-20T02:09:22+10:00',
/* author */ (''),
/* organization */ (''),
/* preprocessor_version */ 'ST-DEVELOPER v20.2',
/* originating_system */ 'Autodesk Translation Framework v15.15.0.0',
/* authorisation */ '');

FILE_SCHEMA (('AUTOMOTIVE_DESIGN { 1 0 10303 214 3 1 1 }'));
ENDSEC;

DATA;
#10=MECHANICAL_DESIGN_GEOMETRIC_PRESENTATION_REPRESENTATION('',(#13),#723);
#11=SHAPE_REPRESENTATION_RELATIONSHIP('SRR','None',#730,#12);
#12=ADVANCED_BREP_SHAPE_REPRESENTATION('',(#14),#722);
#13=STYLED_ITEM('',(#739),#14);
#14=MANIFOLD_SOLID_BREP('Body1',#415);
#15=FACE_BOUND('',#88,.T.);
#16=FACE_BOUND('',#94,.T.);
#17=SPHERICAL_SURFACE('',#447,1.);
#18=SPHERICAL_SURFACE('',#452,1.);
#19=SPHERICAL_SURFACE('',#463,1.);
#20=SPHERICAL_SURFACE('',#472,1.);
#21=CIRCLE('',#442,1.);
#22=CIRCLE('',#443,0.999999999999996);
#23=CIRCLE('',#445,1.);
#24=CIRCLE('',#446,0.999999999999996);
#25=CIRCLE('',#448,1.);
#26=CIRCLE('',#450,1.);
#27=CIRCLE('',#451,0.999999999999996);
#28=CIRCLE('',#453,1.);
#29=CIRCLE('',#455,1.);
#30=CIRCLE('',#458,1.);
#31=CIRCLE('',#461,1.);
#32=CIRCLE('',#462,1.);
#33=CIRCLE('',#464,1.);
#34=CIRCLE('',#466,1.);
#35=CIRCLE('',#469,1.);
#36=CIRCLE('',#471,0.999999999999996);
#37=PLANE('',#432);
#38=PLANE('',#436);
#39=PLANE('',#438);
#40=PLANE('',#440);
#41=PLANE('',#456);
#42=PLANE('',#459);
#43=PLANE('',#465);
#44=PLANE('',#467);
#45=PLANE('',#473);
#46=PLANE('',#474);
#47=FACE_OUTER_BOUND('',#73,.T.);
#48=FACE_OUTER_BOUND('',#74,.T.);
#49=FACE_OUTER_BOUND('',#75,.T.);
#50=FACE_OUTER_BOUND('',#76,.T.);
#51=FACE_OUTER_BOUND('',#77,.T.);
#52=FACE_OUTER_BOUND('',#78,.T.);
#53=FACE_OUTER_BOUND('',#79,.T.);
#54=FACE_OUTER_BOUND('',#80,.T.);
#55=FACE_OUTER_BOUND('',#81,.T.);
#56=FACE_OUTER_BOUND('',#82,.T.);
#57=FACE_OUTER_BOUND('',#83,.T.);
#58=FACE_OUTER_BOUND('',#84,.T.);
#59=FACE_OUTER_BOUND('',#85,.T.);
#60=FACE_OUTER_BOUND('',#86,.T.);
#61=FACE_OUTER_BOUND('',#87,.T.);
#62=FACE_OUTER_BOUND('',#89,.T.);
#63=FACE_OUTER_BOUND('',#90,.T.);
#64=FACE_OUTER_BOUND('',#91,.T.);
#65=FACE_OUTER_BOUND('',#92,.T.);
#66=FACE_OUTER_BOUND('',#93,.T.);
#67=FACE_OUTER_BOUND('',#95,.T.);
#68=FACE_OUTER_BOUND('',#96,.T.);
#69=FACE_OUTER_BOUND('',#97,.T.);
#70=FACE_OUTER_BOUND('',#98,.T.);
#71=FACE_OUTER_BOUND('',#99,.T.);
#72=FACE_OUTER_BOUND('',#100,.T.);
#73=EDGE_LOOP('',(#265,#266,#267,#268));
#74=EDGE_LOOP('',(#269,#270,#271,#272));
#75=EDGE_LOOP('',(#273,#274,#275,#276));
#76=EDGE_LOOP('',(#277,#278,#279,#280));
#77=EDGE_LOOP('',(#281,#282,#283,#284));
#78=EDGE_LOOP('',(#285,#286,#287,#288));
#79=EDGE_LOOP('',(#289,#290,#291,#292));
#80=EDGE_LOOP('',(#293,#294,#295,#296));
#81=EDGE_LOOP('',(#297,#298,#299,#300));
#82=EDGE_LOOP('',(#301,#302,#303,#304));
#83=EDGE_LOOP('',(#305,#306,#307));
#84=EDGE_LOOP('',(#308,#309,#310,#311));
#85=EDGE_LOOP('',(#312,#313,#314));
#86=EDGE_LOOP('',(#315,#316,#317,#318));
#87=EDGE_LOOP('',(#319,#320,#321,#322));
#88=EDGE_LOOP('',(#323,#324,#325,#326));
#89=EDGE_LOOP('',(#327,#328,#329,#330));
#90=EDGE_LOOP('',(#331,#332,#333,#334));
#91=EDGE_LOOP('',(#335,#336,#337,#338));
#92=EDGE_LOOP('',(#339,#340,#341));
#93=EDGE_LOOP('',(#342,#343,#344,#345,#346,#347,#348,#349));
#94=EDGE_LOOP('',(#350,#351,#352,#353));
#95=EDGE_LOOP('',(#354,#355,#356,#357));
#96=EDGE_LOOP('',(#358,#359,#360,#361));
#97=EDGE_LOOP('',(#362,#363,#364,#365));
#98=EDGE_LOOP('',(#366,#367,#368));
#99=EDGE_LOOP('',(#369,#370,#371,#372));
#100=EDGE_LOOP('',(#373,#374,#375,#376));
#101=LINE('',#611,#137);
#102=LINE('',#614,#138);
#103=LINE('',#617,#139);
#104=LINE('',#619,#140);
#105=LINE('',#620,#141);
#106=LINE('',#626,#142);
#107=LINE('',#629,#143);
#108=LINE('',#632,#144);
#109=LINE('',#634,#145);
#110=LINE('',#635,#146);
#111=LINE('',#637,#147);
#112=LINE('',#638,#148);
#113=LINE('',#640,#149);
#114=LINE('',#642,#150);
#115=LINE('',#643,#151);
#116=LINE('',#645,#152);
#117=LINE('',#651,#153);
#118=LINE('',#654,#154);
#119=LINE('',#659,#155);
#120=LINE('',#662,#156);
#121=LINE('',#670,#157);
#122=LINE('',#672,#158);
#123=LINE('',#677,#159);
#124=LINE('',#680,#160);
#125=LINE('',#683,#161);
#126=LINE('',#684,#162);
#127=LINE('',#687,#163);
#128=LINE('',#691,#164);
#129=LINE('',#692,#165);
#130=LINE('',#697,#166);
#131=LINE('',#700,#167);
#132=LINE('',#704,#168);
#133=LINE('',#706,#169);
#134=LINE('',#708,#170);
#135=LINE('',#711,#171);
#136=LINE('',#712,#172);
#137=VECTOR('',#481,10.);
#138=VECTOR('',#484,10.);
#139=VECTOR('',#487,10.);
#140=VECTOR('',#488,10.);
#141=VECTOR('',#489,10.);
#142=VECTOR('',#494,10.);
#143=VECTOR('',#497,10.);
#144=VECTOR('',#500,10.);
#145=VECTOR('',#501,10.);
#146=VECTOR('',#502,10.);
#147=VECTOR('',#505,10.);
#148=VECTOR('',#506,10.);
#149=VECTOR('',#509,10.);
#150=VECTOR('',#512,10.);
#151=VECTOR('',#513,10.);
#152=VECTOR('',#516,10.);
#153=VECTOR('',#521,10.);
#154=VECTOR('',#524,10.);
#155=VECTOR('',#529,10.);
#156=VECTOR('',#532,10.);
#157=VECTOR('',#541,10.);
#158=VECTOR('',#544,10.);
#159=VECTOR('',#551,10.);
#160=VECTOR('',#554,10.);
#161=VECTOR('',#557,10.);
#162=VECTOR('',#558,10.);
#163=VECTOR('',#561,10.);
#164=VECTOR('',#566,10.);
#165=VECTOR('',#567,10.);
#166=VECTOR('',#572,10.);
#167=VECTOR('',#575,10.);
#168=VECTOR('',#582,10.);
#169=VECTOR('',#583,10.);
#170=VECTOR('',#586,10.);
#171=VECTOR('',#589,10.);
#172=VECTOR('',#590,10.);
#173=ELLIPSE('',#430,1.4142135623731,1.);
#174=ELLIPSE('',#431,1.4142135623731,1.);
#175=ELLIPSE('',#434,1.4142135623731,1.);
#176=ELLIPSE('',#435,1.4142135623731,1.);
#177=VERTEX_POINT('',#607);
#178=VERTEX_POINT('',#608);
#179=VERTEX_POINT('',#610);
#180=VERTEX_POINT('',#612);
#181=VERTEX_POINT('',#616);
#182=VERTEX_POINT('',#618);
#183=VERTEX_POINT('',#622);
#184=VERTEX_POINT('',#623);
#185=VERTEX_POINT('',#625);
#186=VERTEX_POINT('',#627);
#187=VERTEX_POINT('',#631);
#188=VERTEX_POINT('',#633);
#189=VERTEX_POINT('',#647);
#190=VERTEX_POINT('',#648);
#191=VERTEX_POINT('',#650);
#192=VERTEX_POINT('',#652);
#193=VERTEX_POINT('',#656);
#194=VERTEX_POINT('',#658);
#195=VERTEX_POINT('',#660);
#196=VERTEX_POINT('',#666);
#197=VERTEX_POINT('',#667);
#198=VERTEX_POINT('',#669);
#199=VERTEX_POINT('',#676);
#200=VERTEX_POINT('',#678);
#201=VERTEX_POINT('',#682);
#202=VERTEX_POINT('',#686);
#203=VERTEX_POINT('',#690);
#204=VERTEX_POINT('',#694);
#205=VERTEX_POINT('',#695);
#206=VERTEX_POINT('',#698);
#207=VERTEX_POINT('',#705);
#208=VERTEX_POINT('',#710);
#209=EDGE_CURVE('',#177,#178,#173,.F.);
#210=EDGE_CURVE('',#178,#179,#101,.T.);
#211=EDGE_CURVE('',#179,#180,#174,.F.);
#212=EDGE_CURVE('',#180,#177,#102,.T.);
#213=EDGE_CURVE('',#181,#178,#103,.T.);
#214=EDGE_CURVE('',#181,#182,#104,.T.);
#215=EDGE_CURVE('',#182,#179,#105,.T.);
#216=EDGE_CURVE('',#183,#184,#175,.F.);
#217=EDGE_CURVE('',#184,#185,#106,.T.);
#218=EDGE_CURVE('',#185,#186,#176,.F.);
#219=EDGE_CURVE('',#186,#183,#107,.T.);
#220=EDGE_CURVE('',#187,#184,#108,.T.);
#221=EDGE_CURVE('',#187,#188,#109,.T.);
#222=EDGE_CURVE('',#188,#185,#110,.T.);
#223=EDGE_CURVE('',#179,#184,#111,.T.);
#224=EDGE_CURVE('',#183,#180,#112,.T.);
#225=EDGE_CURVE('',#182,#187,#113,.T.);
#226=EDGE_CURVE('',#185,#178,#114,.T.);
#227=EDGE_CURVE('',#177,#186,#115,.T.);
#228=EDGE_CURVE('',#188,#181,#116,.T.);
#229=EDGE_CURVE('',#189,#190,#21,.T.);
#230=EDGE_CURVE('',#190,#191,#117,.T.);
#231=EDGE_CURVE('',#191,#192,#22,.T.);
#232=EDGE_CURVE('',#192,#189,#118,.T.);
#233=EDGE_CURVE('',#193,#191,#23,.T.);
#234=EDGE_CURVE('',#191,#194,#119,.T.);
#235=EDGE_CURVE('',#194,#195,#24,.T.);
#236=EDGE_CURVE('',#195,#193,#120,.T.);
#237=EDGE_CURVE('',#193,#192,#25,.T.);
#238=EDGE_CURVE('',#196,#197,#26,.T.);
#239=EDGE_CURVE('',#197,#198,#121,.T.);
#240=EDGE_CURVE('',#198,#194,#27,.T.);
#241=EDGE_CURVE('',#194,#196,#122,.T.);
#242=EDGE_CURVE('',#198,#195,#28,.T.);
#243=EDGE_CURVE('',#193,#199,#123,.T.);
#244=EDGE_CURVE('',#199,#200,#29,.T.);
#245=EDGE_CURVE('',#200,#192,#124,.T.);
#246=EDGE_CURVE('',#201,#195,#125,.T.);
#247=EDGE_CURVE('',#199,#201,#126,.T.);
#248=EDGE_CURVE('',#198,#202,#127,.T.);
#249=EDGE_CURVE('',#201,#202,#30,.T.);
#250=EDGE_CURVE('',#203,#197,#128,.T.);
#251=EDGE_CURVE('',#202,#203,#129,.T.);
#252=EDGE_CURVE('',#204,#205,#31,.T.);
#253=EDGE_CURVE('',#205,#200,#130,.T.);
#254=EDGE_CURVE('',#200,#206,#32,.T.);
#255=EDGE_CURVE('',#206,#204,#131,.T.);
#256=EDGE_CURVE('',#199,#206,#33,.T.);
#257=EDGE_CURVE('',#189,#205,#132,.T.);
#258=EDGE_CURVE('',#204,#207,#133,.T.);
#259=EDGE_CURVE('',#203,#207,#34,.T.);
#260=EDGE_CURVE('',#196,#190,#134,.T.);
#261=EDGE_CURVE('',#208,#206,#135,.T.);
#262=EDGE_CURVE('',#207,#208,#136,.T.);
#263=EDGE_CURVE('',#201,#208,#35,.T.);
#264=EDGE_CURVE('',#208,#202,#36,.T.);
#265=ORIENTED_EDGE('',*,*,#209,.T.);
#266=ORIENTED_EDGE('',*,*,#210,.T.);
#267=ORIENTED_EDGE('',*,*,#211,.T.);
#268=ORIENTED_EDGE('',*,*,#212,.T.);
#269=ORIENTED_EDGE('',*,*,#210,.F.);
#270=ORIENTED_EDGE('',*,*,#213,.F.);
#271=ORIENTED_EDGE('',*,*,#214,.T.);
#272=ORIENTED_EDGE('',*,*,#215,.T.);
#273=ORIENTED_EDGE('',*,*,#216,.T.);
#274=ORIENTED_EDGE('',*,*,#217,.T.);
#275=ORIENTED_EDGE('',*,*,#218,.T.);
#276=ORIENTED_EDGE('',*,*,#219,.T.);
#277=ORIENTED_EDGE('',*,*,#217,.F.);
#278=ORIENTED_EDGE('',*,*,#220,.F.);
#279=ORIENTED_EDGE('',*,*,#221,.T.);
#280=ORIENTED_EDGE('',*,*,#222,.T.);
#281=ORIENTED_EDGE('',*,*,#223,.T.);
#282=ORIENTED_EDGE('',*,*,#216,.F.);
#283=ORIENTED_EDGE('',*,*,#224,.T.);
#284=ORIENTED_EDGE('',*,*,#211,.F.);
#285=ORIENTED_EDGE('',*,*,#223,.F.);
#286=ORIENTED_EDGE('',*,*,#215,.F.);
#287=ORIENTED_EDGE('',*,*,#225,.T.);
#288=ORIENTED_EDGE('',*,*,#220,.T.);
#289=ORIENTED_EDGE('',*,*,#226,.T.);
#290=ORIENTED_EDGE('',*,*,#209,.F.);
#291=ORIENTED_EDGE('',*,*,#227,.T.);
#292=ORIENTED_EDGE('',*,*,#218,.F.);
#293=ORIENTED_EDGE('',*,*,#226,.F.);
#294=ORIENTED_EDGE('',*,*,#222,.F.);
#295=ORIENTED_EDGE('',*,*,#228,.T.);
#296=ORIENTED_EDGE('',*,*,#213,.T.);
#297=ORIENTED_EDGE('',*,*,#229,.T.);
#298=ORIENTED_EDGE('',*,*,#230,.T.);
#299=ORIENTED_EDGE('',*,*,#231,.T.);
#300=ORIENTED_EDGE('',*,*,#232,.T.);
#301=ORIENTED_EDGE('',*,*,#233,.T.);
#302=ORIENTED_EDGE('',*,*,#234,.T.);
#303=ORIENTED_EDGE('',*,*,#235,.T.);
#304=ORIENTED_EDGE('',*,*,#236,.T.);
#305=ORIENTED_EDGE('',*,*,#233,.F.);
#306=ORIENTED_EDGE('',*,*,#237,.T.);
#307=ORIENTED_EDGE('',*,*,#231,.F.);
#308=ORIENTED_EDGE('',*,*,#238,.T.);
#309=ORIENTED_EDGE('',*,*,#239,.T.);
#310=ORIENTED_EDGE('',*,*,#240,.T.);
#311=ORIENTED_EDGE('',*,*,#241,.T.);
#312=ORIENTED_EDGE('',*,*,#240,.F.);
#313=ORIENTED_EDGE('',*,*,#242,.T.);
#314=ORIENTED_EDGE('',*,*,#235,.F.);
#315=ORIENTED_EDGE('',*,*,#237,.F.);
#316=ORIENTED_EDGE('',*,*,#243,.T.);
#317=ORIENTED_EDGE('',*,*,#244,.T.);
#318=ORIENTED_EDGE('',*,*,#245,.T.);
#319=ORIENTED_EDGE('',*,*,#236,.F.);
#320=ORIENTED_EDGE('',*,*,#246,.F.);
#321=ORIENTED_EDGE('',*,*,#247,.F.);
#322=ORIENTED_EDGE('',*,*,#243,.F.);
#323=ORIENTED_EDGE('',*,*,#224,.F.);
#324=ORIENTED_EDGE('',*,*,#219,.F.);
#325=ORIENTED_EDGE('',*,*,#227,.F.);
#326=ORIENTED_EDGE('',*,*,#212,.F.);
#327=ORIENTED_EDGE('',*,*,#242,.F.);
#328=ORIENTED_EDGE('',*,*,#248,.T.);
#329=ORIENTED_EDGE('',*,*,#249,.F.);
#330=ORIENTED_EDGE('',*,*,#246,.T.);
#331=ORIENTED_EDGE('',*,*,#239,.F.);
#332=ORIENTED_EDGE('',*,*,#250,.F.);
#333=ORIENTED_EDGE('',*,*,#251,.F.);
#334=ORIENTED_EDGE('',*,*,#248,.F.);
#335=ORIENTED_EDGE('',*,*,#252,.T.);
#336=ORIENTED_EDGE('',*,*,#253,.T.);
#337=ORIENTED_EDGE('',*,*,#254,.T.);
#338=ORIENTED_EDGE('',*,*,#255,.T.);
#339=ORIENTED_EDGE('',*,*,#244,.F.);
#340=ORIENTED_EDGE('',*,*,#256,.T.);
#341=ORIENTED_EDGE('',*,*,#254,.F.);
#342=ORIENTED_EDGE('',*,*,#229,.F.);
#343=ORIENTED_EDGE('',*,*,#257,.T.);
#344=ORIENTED_EDGE('',*,*,#252,.F.);
#345=ORIENTED_EDGE('',*,*,#258,.T.);
#346=ORIENTED_EDGE('',*,*,#259,.F.);
#347=ORIENTED_EDGE('',*,*,#250,.T.);
#348=ORIENTED_EDGE('',*,*,#238,.F.);
#349=ORIENTED_EDGE('',*,*,#260,.T.);
#350=ORIENTED_EDGE('',*,*,#228,.F.);
#351=ORIENTED_EDGE('',*,*,#221,.F.);
#352=ORIENTED_EDGE('',*,*,#225,.F.);
#353=ORIENTED_EDGE('',*,*,#214,.F.);
#354=ORIENTED_EDGE('',*,*,#255,.F.);
#355=ORIENTED_EDGE('',*,*,#261,.F.);
#356=ORIENTED_EDGE('',*,*,#262,.F.);
#357=ORIENTED_EDGE('',*,*,#258,.F.);
#358=ORIENTED_EDGE('',*,*,#256,.F.);
#359=ORIENTED_EDGE('',*,*,#247,.T.);
#360=ORIENTED_EDGE('',*,*,#263,.T.);
#361=ORIENTED_EDGE('',*,*,#261,.T.);
#362=ORIENTED_EDGE('',*,*,#259,.T.);
#363=ORIENTED_EDGE('',*,*,#262,.T.);
#364=ORIENTED_EDGE('',*,*,#264,.T.);
#365=ORIENTED_EDGE('',*,*,#251,.T.);
#366=ORIENTED_EDGE('',*,*,#263,.F.);
#367=ORIENTED_EDGE('',*,*,#249,.T.);
#368=ORIENTED_EDGE('',*,*,#264,.F.);
#369=ORIENTED_EDGE('',*,*,#230,.F.);
#370=ORIENTED_EDGE('',*,*,#260,.F.);
#371=ORIENTED_EDGE('',*,*,#241,.F.);
#372=ORIENTED_EDGE('',*,*,#234,.F.);
#373=ORIENTED_EDGE('',*,*,#232,.F.);
#374=ORIENTED_EDGE('',*,*,#245,.F.);
#375=ORIENTED_EDGE('',*,*,#253,.F.);
#376=ORIENTED_EDGE('',*,*,#257,.F.);
#377=CYLINDRICAL_SURFACE('',#429,1.);
#378=CYLINDRICAL_SURFACE('',#433,1.);
#379=CYLINDRICAL_SURFACE('',#437,1.);
#380=CYLINDRICAL_SURFACE('',#439,1.);
#381=CYLINDRICAL_SURFACE('',#441,1.);
#382=CYLINDRICAL_SURFACE('',#444,1.);
#383=CYLINDRICAL_SURFACE('',#449,1.);
#384=CYLINDRICAL_SURFACE('',#454,1.);
#385=CYLINDRICAL_SURFACE('',#457,1.);
#386=CYLINDRICAL_SURFACE('',#460,1.);
#387=CYLINDRICAL_SURFACE('',#468,1.);
#388=CYLINDRICAL_SURFACE('',#470,1.);
#389=ADVANCED_FACE('',(#47),#377,.T.);
#390=ADVANCED_FACE('',(#48),#37,.T.);
#391=ADVANCED_FACE('',(#49),#378,.T.);
#392=ADVANCED_FACE('',(#50),#38,.T.);
#393=ADVANCED_FACE('',(#51),#379,.T.);
#394=ADVANCED_FACE('',(#52),#39,.T.);
#395=ADVANCED_FACE('',(#53),#380,.T.);
#396=ADVANCED_FACE('',(#54),#40,.T.);
#397=ADVANCED_FACE('',(#55),#381,.T.);
#398=ADVANCED_FACE('',(#56),#382,.T.);
#399=ADVANCED_FACE('',(#57),#17,.T.);
#400=ADVANCED_FACE('',(#58),#383,.T.);
#401=ADVANCED_FACE('',(#59),#18,.T.);
#402=ADVANCED_FACE('',(#60),#384,.T.);
#403=ADVANCED_FACE('',(#61,#15),#41,.T.);
#404=ADVANCED_FACE('',(#62),#385,.T.);
#405=ADVANCED_FACE('',(#63),#42,.T.);
#406=ADVANCED_FACE('',(#64),#386,.T.);
#407=ADVANCED_FACE('',(#65),#19,.T.);
#408=ADVANCED_FACE('',(#66,#16),#43,.F.);
#409=ADVANCED_FACE('',(#67),#44,.T.);
#410=ADVANCED_FACE('',(#68),#387,.T.);
#411=ADVANCED_FACE('',(#69),#388,.T.);
#412=ADVANCED_FACE('',(#70),#20,.T.);
#413=ADVANCED_FACE('',(#71),#45,.T.);
#414=ADVANCED_FACE('',(#72),#46,.T.);
#415=CLOSED_SHELL('',(#389,#390,#391,#392,#393,#394,#395,#396,#397,#398,
#399,#400,#401,#402,#403,#404,#405,#406,#407,#408,#409,#410,#411,#412,#413,
#414));
#416=DERIVED_UNIT_ELEMENT(#418,1.);
#417=DERIVED_UNIT_ELEMENT(#725,-3.);
#418=(
MASS_UNIT()
NAMED_UNIT(*)
SI_UNIT(.KILO.,.GRAM.)
);
#419=DERIVED_UNIT((#416,#417));
#420=MEASURE_REPRESENTATION_ITEM('density measure',
POSITIVE_RATIO_MEASURE(7850.),#419);
#421=PROPERTY_DEFINITION_REPRESENTATION(#426,#423);
#422=PROPERTY_DEFINITION_REPRESENTATION(#427,#424);
#423=REPRESENTATION('material name',(#425),#722);
#424=REPRESENTATION('density',(#420),#722);
#425=DESCRIPTIVE_REPRESENTATION_ITEM('Steel','Steel');
#426=PROPERTY_DEFINITION('material property','material name',#732);
#427=PROPERTY_DEFINITION('material property','density of part',#732);
#428=AXIS2_PLACEMENT_3D('',#605,#475,#476);
#429=AXIS2_PLACEMENT_3D('',#606,#477,#478);
#430=AXIS2_PLACEMENT_3D('',#609,#479,#480);
#431=AXIS2_PLACEMENT_3D('',#613,#482,#483);
#432=AXIS2_PLACEMENT_3D('',#615,#485,#486);
#433=AXIS2_PLACEMENT_3D('',#621,#490,#491);
#434=AXIS2_PLACEMENT_3D('',#624,#492,#493);
#435=AXIS2_PLACEMENT_3D('',#628,#495,#496);
#436=AXIS2_PLACEMENT_3D('',#630,#498,#499);
#437=AXIS2_PLACEMENT_3D('',#636,#503,#504);
#438=AXIS2_PLACEMENT_3D('',#639,#507,#508);
#439=AXIS2_PLACEMENT_3D('',#641,#510,#511);
#440=AXIS2_PLACEMENT_3D('',#644,#514,#515);
#441=AXIS2_PLACEMENT_3D('',#646,#517,#518);
#442=AXIS2_PLACEMENT_3D('',#649,#519,#520);
#443=AXIS2_PLACEMENT_3D('',#653,#522,#523);
#444=AXIS2_PLACEMENT_3D('',#655,#525,#526);
#445=AXIS2_PLACEMENT_3D('',#657,#527,#528);
#446=AXIS2_PLACEMENT_3D('',#661,#530,#531);
#447=AXIS2_PLACEMENT_3D('',#663,#533,#534);
#448=AXIS2_PLACEMENT_3D('',#664,#535,#536);
#449=AXIS2_PLACEMENT_3D('',#665,#537,#538);
#450=AXIS2_PLACEMENT_3D('',#668,#539,#540);
#451=AXIS2_PLACEMENT_3D('',#671,#542,#543);
#452=AXIS2_PLACEMENT_3D('',#673,#545,#546);
#453=AXIS2_PLACEMENT_3D('',#674,#547,#548);
#454=AXIS2_PLACEMENT_3D('',#675,#549,#550);
#455=AXIS2_PLACEMENT_3D('',#679,#552,#553);
#456=AXIS2_PLACEMENT_3D('',#681,#555,#556);
#457=AXIS2_PLACEMENT_3D('',#685,#559,#560);
#458=AXIS2_PLACEMENT_3D('',#688,#562,#563);
#459=AXIS2_PLACEMENT_3D('',#689,#564,#565);
#460=AXIS2_PLACEMENT_3D('',#693,#568,#569);
#461=AXIS2_PLACEMENT_3D('',#696,#570,#571);
#462=AXIS2_PLACEMENT_3D('',#699,#573,#574);
#463=AXIS2_PLACEMENT_3D('',#701,#576,#577);
#464=AXIS2_PLACEMENT_3D('',#702,#578,#579);
#465=AXIS2_PLACEMENT_3D('',#703,#580,#581);
#466=AXIS2_PLACEMENT_3D('',#707,#584,#585);
#467=AXIS2_PLACEMENT_3D('',#709,#587,#588);
#468=AXIS2_PLACEMENT_3D('',#713,#591,#592);
#469=AXIS2_PLACEMENT_3D('',#714,#593,#594);
#470=AXIS2_PLACEMENT_3D('',#715,#595,#596);
#471=AXIS2_PLACEMENT_3D('',#716,#597,#598);
#472=AXIS2_PLACEMENT_3D('',#717,#599,#600);
#473=AXIS2_PLACEMENT_3D('',#718,#601,#602);
#474=AXIS2_PLACEMENT_3D('',#719,#603,#604);
#475=DIRECTION('axis',(0.,0.,1.));
#476=DIRECTION('refdir',(1.,0.,0.));
#477=DIRECTION('center_axis',(0.,-1.,0.));
#478=DIRECTION('ref_axis',(-0.707106781186553,0.,0.707106781186543));
#479=DIRECTION('center_axis',(-0.707106781186549,0.707106781186546,0.));
#480=DIRECTION('ref_axis',(-0.707106781186546,-0.707106781186549,9.81307786677357E-17));
#481=DIRECTION('',(0.,-1.,0.));
#482=DIRECTION('center_axis',(-0.707106781186549,-0.707106781186546,0.));
#483=DIRECTION('ref_axis',(-0.707106781186546,0.707106781186549,9.81307786677357E-17));
#484=DIRECTION('',(0.,1.,0.));
#485=DIRECTION('center_axis',(-1.,0.,0.));
#486=DIRECTION('ref_axis',(0.,-1.,0.));
#487=DIRECTION('',(0.,0.,1.));
#488=DIRECTION('',(0.,-1.,0.));
#489=DIRECTION('',(0.,0.,1.));
#490=DIRECTION('center_axis',(0.,1.,0.));
#491=DIRECTION('ref_axis',(0.707106781186548,0.,0.707106781186547));
#492=DIRECTION('center_axis',(0.707106781186549,-0.707106781186546,0.));
#493=DIRECTION('ref_axis',(0.707106781186546,0.707106781186549,9.81307786677357E-17));
#494=DIRECTION('',(0.,1.,0.));
#495=DIRECTION('center_axis',(0.707106781186548,0.707106781186548,0.));
#496=DIRECTION('ref_axis',(0.707106781186547,-0.707106781186547,9.81307786677359E-17));
#497=DIRECTION('',(0.,-1.,0.));
#498=DIRECTION('center_axis',(1.,0.,0.));
#499=DIRECTION('ref_axis',(0.,1.,0.));
#500=DIRECTION('',(0.,0.,1.));
#501=DIRECTION('',(0.,1.,0.));
#502=DIRECTION('',(0.,0.,1.));
#503=DIRECTION('center_axis',(-1.,0.,0.));
#504=DIRECTION('ref_axis',(0.,0.707106781186548,0.707106781186547));
#505=DIRECTION('',(-1.,0.,0.));
#506=DIRECTION('',(1.,0.,0.));
#507=DIRECTION('center_axis',(0.,1.,0.));
#508=DIRECTION('ref_axis',(-1.,0.,0.));
#509=DIRECTION('',(-1.,0.,0.));
#510=DIRECTION('center_axis',(1.,0.,0.));
#511=DIRECTION('ref_axis',(0.,-0.707106781186549,0.707106781186546));
#512=DIRECTION('',(1.,0.,0.));
#513=DIRECTION('',(-1.,0.,0.));
#514=DIRECTION('center_axis',(0.,-1.,0.));
#515=DIRECTION('ref_axis',(1.,0.,0.));
#516=DIRECTION('',(1.,0.,0.));
#517=DIRECTION('center_axis',(0.,0.,1.));
#518=DIRECTION('ref_axis',(0.707106781186553,-0.707106781186543,0.));
#519=DIRECTION('center_axis',(0.,0.,1.));
#520=DIRECTION('ref_axis',(0.707106781186553,-0.707106781186543,0.));
#521=DIRECTION('',(0.,0.,1.));
#522=DIRECTION('center_axis',(0.,0.,-1.));
#523=DIRECTION('ref_axis',(1.,0.,0.));
#524=DIRECTION('',(0.,0.,-1.));
#525=DIRECTION('center_axis',(0.,1.,0.));
#526=DIRECTION('ref_axis',(0.707106781186553,0.,0.707106781186543));
#527=DIRECTION('center_axis',(0.,1.,0.));
#528=DIRECTION('ref_axis',(0.,0.,1.));
#529=DIRECTION('',(0.,1.,0.));
#530=DIRECTION('center_axis',(0.,-1.,0.));
#531=DIRECTION('ref_axis',(1.,0.,0.));
#532=DIRECTION('',(0.,-1.,0.));
#533=DIRECTION('center_axis',(-0.816496580927729,-0.40824829046386,0.408248290463859));
#534=DIRECTION('ref_axis',(0.577350269189623,-0.577350269189628,0.577350269189627));
#535=DIRECTION('center_axis',(1.,0.,0.));
#536=DIRECTION('ref_axis',(0.,-0.707106781186548,0.707106781186547));
#537=DIRECTION('center_axis',(0.,0.,1.));
#538=DIRECTION('ref_axis',(0.707106781186554,0.707106781186541,0.));
#539=DIRECTION('center_axis',(0.,0.,1.));
#540=DIRECTION('ref_axis',(0.707106781186554,0.707106781186541,0.));
#541=DIRECTION('',(0.,0.,1.));
#542=DIRECTION('center_axis',(0.,0.,-1.));
#543=DIRECTION('ref_axis',(0.,1.,0.));
#544=DIRECTION('',(0.,0.,-1.));
#545=DIRECTION('center_axis',(0.40824829046386,-0.816496580927727,0.408248290463864));
#546=DIRECTION('ref_axis',(0.577350269189624,0.577350269189624,0.577350269189629));
#547=DIRECTION('center_axis',(1.,0.,0.));
#548=DIRECTION('ref_axis',(0.,0.707106781186546,0.707106781186549));
#549=DIRECTION('center_axis',(1.,0.,0.));
#550=DIRECTION('ref_axis',(0.,-0.707106781186548,0.707106781186547));
#551=DIRECTION('',(-1.,0.,0.));
#552=DIRECTION('center_axis',(1.,0.,0.));
#553=DIRECTION('ref_axis',(0.,-4.44089209850063E-15,1.));
#554=DIRECTION('',(1.,0.,0.));
#555=DIRECTION('center_axis',(0.,0.,1.));
#556=DIRECTION('ref_axis',(1.,0.,0.));
#557=DIRECTION('',(1.,0.,0.));
#558=DIRECTION('',(0.,1.,0.));
#559=DIRECTION('center_axis',(-1.,0.,0.));
#560=DIRECTION('ref_axis',(0.,0.707106781186546,0.707106781186549));
#561=DIRECTION('',(-1.,0.,0.));
#562=DIRECTION('center_axis',(-1.,0.,0.));
#563=DIRECTION('ref_axis',(0.,0.707106781186546,0.707106781186549));
#564=DIRECTION('center_axis',(0.,1.,0.));
#565=DIRECTION('ref_axis',(-1.,0.,0.));
#566=DIRECTION('',(1.,0.,0.));
#567=DIRECTION('',(0.,0.,-1.));
#568=DIRECTION('center_axis',(0.,0.,1.));
#569=DIRECTION('ref_axis',(-0.707106781186547,-0.707106781186548,0.));
#570=DIRECTION('center_axis',(0.,0.,1.));
#571=DIRECTION('ref_axis',(-0.707106781186547,-0.707106781186548,0.));
#572=DIRECTION('',(0.,0.,1.));
#573=DIRECTION('center_axis',(0.,0.,-1.));
#574=DIRECTION('ref_axis',(0.,-1.,0.));
#575=DIRECTION('',(0.,0.,-1.));
#576=DIRECTION('center_axis',(-0.408248290463864,-0.408248290463862,-0.816496580927726));
#577=DIRECTION('ref_axis',(-0.577350269189627,-0.577350269189624,0.577350269189626));
#578=DIRECTION('center_axis',(0.,-1.,0.));
#579=DIRECTION('ref_axis',(-0.707106781186548,0.,0.707106781186547));
#580=DIRECTION('center_axis',(0.,0.,1.));
#581=DIRECTION('ref_axis',(1.,0.,0.));
#582=DIRECTION('',(-1.,0.,0.));
#583=DIRECTION('',(0.,1.,0.));
#584=DIRECTION('center_axis',(0.,0.,1.));
#585=DIRECTION('ref_axis',(-0.707106781186548,0.707106781186548,0.));
#586=DIRECTION('',(0.,-1.,0.));
#587=DIRECTION('center_axis',(-1.,0.,0.));
#588=DIRECTION('ref_axis',(0.,-1.,0.));
#589=DIRECTION('',(0.,-1.,0.));
#590=DIRECTION('',(0.,0.,1.));
#591=DIRECTION('center_axis',(0.,-1.,0.));
#592=DIRECTION('ref_axis',(-0.707106781186548,0.,0.707106781186547));
#593=DIRECTION('center_axis',(0.,-1.,0.));
#594=DIRECTION('ref_axis',(-4.44089209850063E-15,0.,1.));
#595=DIRECTION('center_axis',(0.,0.,1.));
#596=DIRECTION('ref_axis',(-0.707106781186548,0.707106781186548,0.));
#597=DIRECTION('center_axis',(0.,0.,-1.));
#598=DIRECTION('ref_axis',(-1.,0.,0.));
#599=DIRECTION('center_axis',(-0.408248290463862,-0.816496580927726,0.408248290463864));
#600=DIRECTION('ref_axis',(-0.577350269189626,0.577350269189624,0.577350269189628));
#601=DIRECTION('center_axis',(1.,0.,0.));
#602=DIRECTION('ref_axis',(0.,1.,0.));
#603=DIRECTION('center_axis',(0.,-1.,0.));
#604=DIRECTION('ref_axis',(1.,0.,0.));
#605=CARTESIAN_POINT('',(0.,0.,0.));
#606=CARTESIAN_POINT('Origin',(88.,30.5,2.));
#607=CARTESIAN_POINT('',(88.,32.,3.));
#608=CARTESIAN_POINT('',(87.,31.,2.));
#609=CARTESIAN_POINT('Origin',(88.,32.,2.));
#610=CARTESIAN_POINT('',(87.,12.,2.));
#611=CARTESIAN_POINT('',(87.,30.5,2.));
#612=CARTESIAN_POINT('',(88.,11.,3.));
#613=CARTESIAN_POINT('Origin',(88.,11.,2.));
#614=CARTESIAN_POINT('',(88.,30.5,3.));
#615=CARTESIAN_POINT('Origin',(87.,31.,0.));
#616=CARTESIAN_POINT('',(87.,31.,0.));
#617=CARTESIAN_POINT('',(87.,31.,0.));
#618=CARTESIAN_POINT('',(87.,12.,0.));
#619=CARTESIAN_POINT('',(87.,31.,0.));
#620=CARTESIAN_POINT('',(87.,12.,0.));
#621=CARTESIAN_POINT('Origin',(10.,21.,2.));
#622=CARTESIAN_POINT('',(10.,11.,3.));
#623=CARTESIAN_POINT('',(11.,12.,2.));
#624=CARTESIAN_POINT('Origin',(10.,11.,2.));
#625=CARTESIAN_POINT('',(11.,31.,2.));
#626=CARTESIAN_POINT('',(11.,21.,2.));
#627=CARTESIAN_POINT('',(10.,32.,3.));
#628=CARTESIAN_POINT('Origin',(10.,32.,2.));
#629=CARTESIAN_POINT('',(10.,21.,3.));
#630=CARTESIAN_POINT('Origin',(11.,12.,0.));
#631=CARTESIAN_POINT('',(11.,12.,0.));
#632=CARTESIAN_POINT('',(11.,12.,0.));
#633=CARTESIAN_POINT('',(11.,31.,0.));
#634=CARTESIAN_POINT('',(11.,31.,0.));
#635=CARTESIAN_POINT('',(11.,31.,0.));
#636=CARTESIAN_POINT('Origin',(69.,11.,2.));
#637=CARTESIAN_POINT('',(69.,12.,2.));
#638=CARTESIAN_POINT('',(69.,11.,3.));
#639=CARTESIAN_POINT('Origin',(87.,12.,0.));
#640=CARTESIAN_POINT('',(11.,12.,0.));
#641=CARTESIAN_POINT('Origin',(31.,32.,2.));
#642=CARTESIAN_POINT('',(31.,31.,2.));
#643=CARTESIAN_POINT('',(31.,32.,3.));
#644=CARTESIAN_POINT('Origin',(11.,31.,0.));
#645=CARTESIAN_POINT('',(68.,31.,0.));
#646=CARTESIAN_POINT('Origin',(101.,1.,0.));
#647=CARTESIAN_POINT('',(101.,0.,0.));
#648=CARTESIAN_POINT('',(102.,0.999999999999996,0.));
#649=CARTESIAN_POINT('Origin',(101.,1.,0.));
#650=CARTESIAN_POINT('',(102.,1.,2.));
#651=CARTESIAN_POINT('',(102.,1.,0.));
#652=CARTESIAN_POINT('',(101.,0.,2.));
#653=CARTESIAN_POINT('Origin',(101.,1.,2.));
#654=CARTESIAN_POINT('',(101.,0.,0.));
#655=CARTESIAN_POINT('Origin',(101.,15.,2.));
#656=CARTESIAN_POINT('',(101.,1.,3.));
#657=CARTESIAN_POINT('Origin',(101.,1.,2.));
#658=CARTESIAN_POINT('',(102.,59.,2.));
#659=CARTESIAN_POINT('',(102.,15.,2.));
#660=CARTESIAN_POINT('',(101.,59.,3.));
#661=CARTESIAN_POINT('Origin',(101.,59.,2.));
#662=CARTESIAN_POINT('',(101.,15.,3.));
#663=CARTESIAN_POINT('Origin',(101.,1.,2.));
#664=CARTESIAN_POINT('Origin',(101.,1.,2.));
#665=CARTESIAN_POINT('Origin',(101.,59.,0.));
#666=CARTESIAN_POINT('',(102.,59.,0.));
#667=CARTESIAN_POINT('',(101.,60.,0.));
#668=CARTESIAN_POINT('Origin',(101.,59.,0.));
#669=CARTESIAN_POINT('',(101.,60.,2.));
#670=CARTESIAN_POINT('',(101.,60.,0.));
#671=CARTESIAN_POINT('Origin',(101.,59.,2.));
#672=CARTESIAN_POINT('',(102.,59.,0.));
#673=CARTESIAN_POINT('Origin',(101.,59.,2.));
#674=CARTESIAN_POINT('Origin',(101.,59.,2.));
#675=CARTESIAN_POINT('Origin',(25.5,1.,2.));
#676=CARTESIAN_POINT('',(1.,0.999999999999996,3.));
#677=CARTESIAN_POINT('',(25.5,1.,3.));
#678=CARTESIAN_POINT('',(1.,0.,2.));
#679=CARTESIAN_POINT('Origin',(1.,1.,2.));
#680=CARTESIAN_POINT('',(25.5,0.,2.));
#681=CARTESIAN_POINT('Origin',(51.,30.,3.));
#682=CARTESIAN_POINT('',(0.999999999999996,59.,3.));
#683=CARTESIAN_POINT('',(76.5,59.,3.));
#684=CARTESIAN_POINT('',(1.,45.,3.));
#685=CARTESIAN_POINT('Origin',(76.5,59.,2.));
#686=CARTESIAN_POINT('',(0.999999999999996,60.,2.));
#687=CARTESIAN_POINT('',(76.5,60.,2.));
#688=CARTESIAN_POINT('Origin',(0.999999999999996,59.,2.));
#689=CARTESIAN_POINT('Origin',(102.,60.,0.));
#690=CARTESIAN_POINT('',(0.999999999999996,60.,0.));
#691=CARTESIAN_POINT('',(0.,60.,0.));
#692=CARTESIAN_POINT('',(0.999999999999996,60.,0.));
#693=CARTESIAN_POINT('Origin',(1.,1.,0.));
#694=CARTESIAN_POINT('',(0.,1.,0.));
#695=CARTESIAN_POINT('',(0.999999999999996,0.,0.));
#696=CARTESIAN_POINT('Origin',(1.,1.,0.));
#697=CARTESIAN_POINT('',(1.,0.,0.));
#698=CARTESIAN_POINT('',(0.,0.999999999999996,2.));
#699=CARTESIAN_POINT('Origin',(1.,1.,2.));
#700=CARTESIAN_POINT('',(0.,1.,0.));
#701=CARTESIAN_POINT('Origin',(1.,0.999999999999996,2.));
#702=CARTESIAN_POINT('Origin',(1.,0.999999999999996,2.));
#703=CARTESIAN_POINT('Origin',(51.,30.,0.));
#704=CARTESIAN_POINT('',(102.,0.,0.));
#705=CARTESIAN_POINT('',(0.,59.,0.));
#706=CARTESIAN_POINT('',(0.,0.,0.));
#707=CARTESIAN_POINT('Origin',(0.999999999999996,59.,0.));
#708=CARTESIAN_POINT('',(102.,60.,0.));
#709=CARTESIAN_POINT('Origin',(0.,60.,0.));
#710=CARTESIAN_POINT('',(0.,59.,2.));
#711=CARTESIAN_POINT('',(0.,45.,2.));
#712=CARTESIAN_POINT('',(0.,59.,0.));
#713=CARTESIAN_POINT('Origin',(1.,45.,2.));
#714=CARTESIAN_POINT('Origin',(1.,59.,2.));
#715=CARTESIAN_POINT('Origin',(0.999999999999996,59.,0.));
#716=CARTESIAN_POINT('Origin',(0.999999999999996,59.,2.));
#717=CARTESIAN_POINT('Origin',(0.999999999999996,59.,2.));
#718=CARTESIAN_POINT('Origin',(102.,0.,0.));
#719=CARTESIAN_POINT('Origin',(0.,0.,0.));
#720=UNCERTAINTY_MEASURE_WITH_UNIT(LENGTH_MEASURE(0.01),#724,
'DISTANCE_ACCURACY_VALUE',
'Maximum model space distance between geometric entities at asserted c
onnectivities');
#721=UNCERTAINTY_MEASURE_WITH_UNIT(LENGTH_MEASURE(0.01),#724,
'DISTANCE_ACCURACY_VALUE',
'Maximum model space distance between geometric entities at asserted c
onnectivities');
#722=(
GEOMETRIC_REPRESENTATION_CONTEXT(3)
GLOBAL_UNCERTAINTY_ASSIGNED_CONTEXT((#720))
GLOBAL_UNIT_ASSIGNED_CONTEXT((#724,#726,#727))
REPRESENTATION_CONTEXT('','3D')
);
#723=(
GEOMETRIC_REPRESENTATION_CONTEXT(3)
GLOBAL_UNCERTAINTY_ASSIGNED_CONTEXT((#721))
GLOBAL_UNIT_ASSIGNED_CONTEXT((#724,#726,#727))
REPRESENTATION_CONTEXT('','3D')
);
#724=(
LENGTH_UNIT()
NAMED_UNIT(*)
SI_UNIT(.MILLI.,.METRE.)
);
#725=(
LENGTH_UNIT()
NAMED_UNIT(*)
SI_UNIT($,.METRE.)
);
#726=(
NAMED_UNIT(*)
PLANE_ANGLE_UNIT()
SI_UNIT($,.RADIAN.)
);
#727=(
NAMED_UNIT(*)
SI_UNIT($,.STERADIAN.)
SOLID_ANGLE_UNIT()
);
#728=SHAPE_DEFINITION_REPRESENTATION(#729,#730);
#729=PRODUCT_DEFINITION_SHAPE('',$,#732);
#730=SHAPE_REPRESENTATION('',(#428),#722);
#731=PRODUCT_DEFINITION_CONTEXT('part definition',#736,'design');
#732=PRODUCT_DEFINITION('2026-09-20-01-54-22-601','Blare Top',#733,#731);
#733=PRODUCT_DEFINITION_FORMATION('',$,#738);
#734=PRODUCT_RELATED_PRODUCT_CATEGORY('Blare Top','Blare Top',(#738));
#735=APPLICATION_PROTOCOL_DEFINITION('international standard',
'automotive_design',2009,#736);
#736=APPLICATION_CONTEXT(
'Core Data for Automotive Mechanical Design Process');
#737=PRODUCT_CONTEXT('part definition',#736,'mechanical');
#738=PRODUCT('2026-09-20-01-54-22-601','Blare Top',$,(#737));
#739=PRESENTATION_STYLE_ASSIGNMENT((#740));
#740=SURFACE_STYLE_USAGE(.BOTH.,#741);
#741=SURFACE_SIDE_STYLE('',(#742));
#742=SURFACE_STYLE_FILL_AREA(#743);
#743=FILL_AREA_STYLE('Steel - Satin',(#744));
#744=FILL_AREA_STYLE_COLOUR('Steel - Satin',#745);
#745=COLOUR_RGB('Steel - Satin',0.627450980392157,0.627450980392157,0.627450980392157);
ENDSEC;
END-ISO-10303-21;
